#!OML:ASF H:\GeneralSubjects\Female5\Project 1\Capture day 1\Session 1\Female5.ASF
:FULLY-SPECIFIED
:DEGREES
192
root 4.66078 15.7688 2.27701 350.488 85.3 345.45
lowerback 13.6598 4.6247 8.98686
upperback -11.2171 7.94434 -5.42274
thorax -18.3831 1.97399 -13.6635
lowerneck -16.2103 -3.05093 3.21661
upperneck 38.3516 -4.61744 1.02627
head 16.459 -0.679729 -0.785567
rclavicle 2.78299e-015 6.36111e-015
rhumerus -51.1002 9.12677 -93.1399
rradius 36.7527
rwrist -6.39787
rhand -20.5654 -21.3912
rfingers 7.12502
rthumb 5.79394 -51.292
lclavicle 2.78299e-015 6.36111e-015
lhumerus -49.1938 -17.7041 75.5847
lradius 28.6911
lwrist -2.98563
lhand -18.6953 31.52
lfingers 7.12502
lthumb 7.59925 61.3635
rfemur 4.72843 -7.79711 24.1698
rtibia 44.1753
rfoot 12.6076 -24.8192
rtoes -31.1926
lfemur -20.1997 -16.65 -27.6153
ltibia 18.0188
lfoot -23.163 2.25256
ltoes -26.0989
193
root 5.00028 15.8088 2.27279 361.273 85.3667 356.363
lowerback 13.9938 4.62017 8.36311
upperback -11.1105 7.76086 -5.772
thorax -18.5543 1.92451 -13.7208
lowerneck -16.0034 -3.04156 3.4391
upperneck 38.5089 -4.67026 1.10645
head 16.488 -0.641481 -0.792245
rclavicle 2.38542e-014 4.92986e-014
rhumerus -52.1401 8.40975 -93.7734
rradius 35.4555
rwrist -6.3183
rhand -19.8033 -21.383
rfingers 7.12502
rthumb 6.52975 -51.2624
lclavicle 2.38542e-014 4.92986e-014
lhumerus -48.5897 -20.0112 77.0438
lradius 30.0805
lwrist -2.73988
lhand -19.156 30.7808
lfingers 7.12502
lthumb 7.15453 60.6399
rfemur 1.45505 -8.75774 23.1356
rtibia 48.4128
rfoot 5.43759 -29.1452
rtoes -16.6782
lfemur -17.9722 -16.6479 -29.255
ltibia 17.0982
lfoot -23.5243 1.87848
ltoes -26.0559
194
root 5.32948 15.8462 2.27308 370.195 85.1787 365.182
lowerback 14.2091 4.63303 7.93619
upperback -11.0735 7.64419 -6.12555
thorax -18.6926 1.88261 -13.9034
lowerneck -15.8979 -3.05557 3.44541
upperneck 38.7389 -4.79 1.43824
head 16.5994 -0.620338 -0.663135
rclavicle -8.52786e-014 -3.33958e-014
rhumerus -53.0283 7.78192 -94.4219
rradius 34.0888
rwrist -6.25023
rhand -19.3385 -21.1118
rfingers 7.12502
rthumb 6.97837 -50.9767
lclavicle -8.52786e-014 -3.33958e-014
lhumerus -47.8227 -22.0977 78.0495
lradius 31.7703
lwrist -2.77517
lhand -20.2906 29.98
lfingers 7.12502
lthumb 6.05925 59.8734
rfemur -2.20499 -9.18818 22.6366
rtibia 51.7423
rfoot -1.43697 -31.0348
rtoes -5.5583
lfemur -16.2409 -16.3928 -30.5823
ltibia 16.4086
lfoot -23.7636 1.3748
ltoes -26.4776
195
root 5.65117 15.8824 2.27679 374.996 84.9431 369.704
lowerback 14.2834 4.65791 7.80752
upperback -11.1151 7.62367 -6.40264
thorax -18.7837 1.85505 -14.1801
lowerneck -15.5762 -3.14487 3.29486
upperneck 38.8964 -4.98682 1.86167
head 16.6278 -0.645207 -0.474937
rclavicle 6.32135e-014 -5.24792e-014
rhumerus -53.9154 7.01459 -94.8627
rradius 32.7667
rwrist -6.01864
rhand -19.2999 -20.8293
rfingers 7.12502
rthumb 7.01569 -50.693
lclavicle 6.32135e-014 -5.24792e-014
lhumerus -47.0492 -24.0421 78.7887
lradius 33.699
lwrist -2.71226
lhand -22.3283 29.5336
lfingers 7.12502
lthumb 4.09177 59.4741
rfemur -6.27092 -9.231 22.6867
rtibia 54.3068
rfoot -8.2317 -30.3455
rtoes 2.58729
lfemur -14.7634 -16.1198 -31.445
ltibia 15.6911
lfoot -23.9317 0.490994
ltoes -26.4601
196
root 5.9746 15.9157 2.2854 376.607 84.856 371.041
lowerback 14.2955 4.64429 7.89072
upperback -11.1296 7.60638 -6.57377
thorax -18.7849 1.82006 -14.4372
lowerneck -15.4092 -3.24564 3.07455
upperneck 39.1074 -5.20287 2.30522
head 16.7294 -0.682668 -0.270518
rclavicle -3.69739e-014 1.27222e-014
rhumerus -54.7786 6.23418 -95.1257
rradius 31.6246
rwrist -5.87973
rhand -19.3253 -20.7346
rfingers 7.12502
rthumb 6.99113 -50.5991
lclavicle -3.69739e-014 1.27222e-014
lhumerus -45.9561 -25.6051 79.1741
lradius 35.2802
lwrist -3.01186
lhand -23.3408 29.9611
lfingers 7.12502
lthumb 3.11398 59.9181
rfemur -10.175 -9.01491 23.1487
rtibia 55.7577
rfoot -11.8866 -28.5523
rtoes 3.7172
lfemur -13.2462 -16.0204 -31.9802
ltibia 14.9286
lfoot -24.1874 -1.11389
ltoes -24.0759
